<?xml version="1.0" encoding="UTF-8"?><svg id="Layer_2" xmlns="http://www.w3.org/2000/svg" viewBox="0 0 271.29 69.54"><g id="Vrstva_1"><path d="M27.83,21.44c0-3.34-2.61-5.95-5.95-5.95s-5.95,2.61-5.95,5.95,2.61,5.95,5.95,5.95,5.95-2.61,5.95-5.95Z" style="fill:#000; stroke-width:0px;"/><path d="M45.4,21.44c0-3.34-2.61-5.95-5.95-5.95s-5.95,2.61-5.95,5.95,2.61,5.95,5.95,5.95,5.95-2.61,5.95-5.95Z" style="fill:#000; stroke-width:0px;"/><polygon points="43.49 57.3 43.49 42.87 61.32 42.87 61.32 0 0 0 0 57.3 8.42 57.3 8.42 8.42 52.9 8.42 52.9 34.45 18 34.45 18 42.87 35.07 42.87 35.07 57.3 43.49 57.3" style="fill:#000; stroke-width:0px;"/><polygon points="78.37 57.3 86.96 57.3 86.96 30.03 98.99 30.03 98.99 21.8 78.37 21.8 78.37 57.3" style="fill:#000; stroke-width:0px;"/><rect x="103.97" y="21.8" width="8.59" height="35.49" style="fill:#000; stroke-width:0px;"/><path d="M145.13,25.5c-2.21-2.64-6.52-4.41-10.76-4.41-9.57,0-17.07,7.69-17.07,17.5s7.5,17.57,17.07,17.57c4.21,0,8.52-1.75,10.76-4.36v9.51h-21.43v8.23h30.01V21.8h-8.59v3.7ZM145.13,33.63v9.98c-1.72,2.79-5.47,4.74-9.12,4.74-5.81,0-10.19-4.2-10.19-9.76s4.38-9.69,10.19-9.69c3.61,0,7.33,1.92,9.12,4.74Z" style="fill:#000; stroke-width:0px;"/><path d="M174.02,21.09c-7.61,0-14.04,5.59-14.65,12.74l-.03.41h7.82l.02-.35c.21-3.26,3.09-5.63,6.84-5.63,4.29,0,7.06,2.6,7.06,6.63v.3h-4.78c-10.62,0-17.21,4.69-17.21,12.23,0,6.14,4.93,10.59,11.73,10.59,4.21,0,8.04-1.71,10.26-4.58v3.86h8.16v-21.91c0-8.95-5.69-14.3-15.22-14.3ZM175.95,41.85h5.14v3.9c-1.96,3.01-5.37,4.95-8.7,4.95s-5.35-1.66-5.35-4.14c0-3.08,3.08-4.71,8.91-4.71Z" style="fill:#000; stroke-width:0px;"/><path d="M214.73,21.09c-4.15,0-8,1.75-10.33,4.68v-3.97h-8.59v35.49h8.59v-23.03c1.7-2.79,5-4.59,8.41-4.59,4.84,0,7.84,3.33,7.84,8.7v18.92h8.66v-20.2c0-9.72-5.72-16-14.58-16Z" style="fill:#000; stroke-width:0px;"/><polygon points="247.67 12.13 239.1 12.13 239.1 21.8 232.48 21.8 232.48 30.03 239.1 30.03 239.1 57.3 239.47 57.3 239.47 57.3 256.4 57.3 256.4 57.3 256.78 57.3 256.78 49.43 247.67 49.43 247.67 30.03 256.78 30.03 256.78 21.8 247.67 21.8 247.67 12.13" style="fill:#000; stroke-width:0px;"/><rect x="262.7" y="21.8" width="8.59" height="35.49" style="fill:#000; stroke-width:0px;"/></g></svg>